<?xml version="1.0" ?>
<svg height="128" viewBox="0 0 32 32" width="128" xmlns="http://www.w3.org/2000/svg"><title/>
<path d="M23,18H2a1,1,0,0,1-1-1V12a1,1,0,0,1,1-1H23" style="fill: #b900ff"/>
<polyline points="30 12 26 12 26 6" style="fill: none;stroke: #000;stroke-linecap: round;stroke-linejoin: round;stroke-width: 2px"/>
<circle cx="7" cy="24" r="3" style="fill: none;stroke: #000;stroke-linecap: round;stroke-linejoin: round;stroke-width: 2px"/>
<circle cx="24" cy="24" r="3" style="fill: none;stroke: #000;stroke-linecap: round;stroke-linejoin: round;stroke-width: 2px"/>
<path d="M22,18H2a1,1,0,0,1-1-1V12a1,1,0,0,1,1-1H20" style="fill: none;stroke: #000;stroke-linecap: round;stroke-linejoin: round;stroke-width: 2px"/>
<polyline points="1 21 2 21 4 18.3" style="fill: none;stroke: #000;stroke-linecap: round;stroke-linejoin: round;stroke-width: 2px"/>
<path d="M10,18.2,12,21h7l2-3h6l2,3h2V8a3,3,0,0,0-3-3H23V17" style="fill: none;stroke: #000;stroke-linecap: round;stroke-linejoin: round;stroke-width: 2px"/>
<line style="fill: none;stroke: #000;stroke-linecap: round;stroke-linejoin: round;stroke-width: 2px" x1="30" x2="29" y1="16" y2="16"/>
</svg>